<svg xmlns="http://www.w3.org/2000/svg" width="32" height="32"><path fill="#4680c2" d="M20.912 0h-9.824C2.123 0 0 2.123 0 11.088v9.824C0 29.877 2.123 32 11.088 32h9.824C29.877 32 32 29.877 32 20.912v-9.824C32 2.123 29.855 0 20.912 0zm4.923 22.831H23.51c-.88 0-1.152-.7-2.733-2.303-1.377-1.333-1.987-1.513-2.325-1.513-.475 0-.611.136-.611.791v2.1c0 .565-.18.904-1.671.904-2.461 0-5.195-1.491-7.113-4.269-2.891-4.064-3.683-7.113-3.683-7.745 0-.339.136-.655.791-.655H8.49c.587 0 .813.271 1.04.903 1.151 3.32 3.071 6.233 3.861 6.233.293 0 .429-.136.429-.88v-3.435c-.091-1.581-.927-1.716-.927-2.28 0-.272.227-.543.587-.543h3.659c.497 0 .677.271.677.857v4.631c0 .496.227.677.361.677.293 0 .543-.181 1.084-.723 1.672-1.875 2.868-4.765 2.868-4.765.159-.339.429-.655 1.017-.655h2.325c.7 0 .859.36.7.857-.293 1.356-3.139 5.375-3.139 5.375-.248.407-.339.587 0 1.04.248.339 1.061 1.039 1.604 1.671.993 1.129 1.76 2.077 1.964 2.733.227.653-.113.992-.767.993z"/></svg>